<?xml version="1.0" encoding="UTF-8"?>
<svg xmlns="http://www.w3.org/2000/svg" version="1.1" viewBox="0 0 113.3857 56.6924">
  <!-- Generator: Adobe Illustrator 28.7.1, SVG Export Plug-In . SVG Version: 1.2.0 Build 142)  -->
  <g>
    <g id="Layer_1">
      <g>
        <polygon points="57.0402 21.8548 51.5301 34.8376 53.4994 34.8376 55.1113 31.0406 60.9384 31.0406 60.1021 29.0712 55.9476 29.0712 58.0249 24.1748 57.0402 21.8548" fill="#319b77"/>
        <path d="M14.1732,29.6377h.553l.4451-1.2072h1.9559l.4451,1.2072h.5733l-1.6996-4.4849h-.5665l-1.7063,4.4849ZM15.3534,27.9517l.7959-2.1582.7958,2.1582h-1.5917ZM19.7305,30.6089c-.5935,0-1.0251-.1686-1.0251-.526,0-.2631.2562-.3845.5732-.4384h.924c.344,0,.6002.1551.6002.4249,0,.317-.2967.5395-1.0723.5395M19.7305,31.0473c1.0589,0,1.5917-.4114,1.5917-1.0386,0-.5531-.4114-.8026-1.0184-.8026h-.9847c-.263,0-.4114-.0809-.4114-.263,0-.2091.2158-.3035.4788-.3305.0877.0135.1754.0202.2698.0202.7014,0,1.2747-.499,1.2747-1.2139,0-.2631-.0742-.4924-.2023-.6812h.5463v-.4519h-1.1601c-.1416-.0472-.29-.0674-.4518-.0674-.7689,0-1.2747.5058-1.2815,1.2005-.0067.4383.1956.8025.5261,1.0116-.3103.1281-.4789.3372-.4789.58,0,.2023.1079.3979.3238.5126-.3305.1079-.5396.3574-.5396.6744-.0067.4856.4451.8498,1.5175.8498M19.6631,28.2079c-.4856,0-.7756-.3237-.7756-.7823,0-.4519.29-.7689.7756-.7689s.7688.3238.7688.7689c0,.4586-.29.7823-.7688.7823M21.828,29.6377h.4653v-1.9558c.1754-.4991.3912-.9307.897-.9307.0675,0,.1484.0067.2226.0202v-.5261c-.0472-.0067-.1012-.0135-.1753-.0135-.4856,0-.7622.317-.9443.6947v-.6272h-.4653v3.3384h0ZM25.1125,29.7052c1.0049,0,1.5579-.7554,1.5579-1.7401s-.553-1.74-1.5579-1.74-1.558.7554-1.558,1.74c-.0067.9847.5531,1.7401,1.558,1.7401M25.1125,29.2601c-.6677,0-1.0252-.5194-1.0252-1.295,0-.7688.3575-1.2949,1.0252-1.2949s1.0251.5193,1.0251,1.2949c0,.7689-.3574,1.295-1.0251,1.295M27.2032,29.6377h.5328v-1.5309h.6475c1.2342,0,1.9086-.5126,1.9086-1.4838,0-.9442-.6272-1.4635-1.7535-1.4635h-1.3421v4.4782h.0067ZM27.7428,27.6482v-2.0099h.7688c.7891,0,1.2005.317,1.2005.9847,0,.7014-.4249.9914-1.3354,1.0117l-.6339.0135ZM31.4656,29.2938c-.4248,0-.6204-.2698-.6204-.5665,0-.4654.5395-.634,1.106-.7217l.5396-.0809v.6879c-.2563.344-.5126.6812-1.0252.6812M31.4049,29.7052c.5463,0,.897-.263,1.1061-.5396v.4721h.4991c-.027-.2428-.054-.5058-.054-.7351v-1.5512c0-.6947-.4248-1.1263-1.1802-1.1263-.6947,0-1.1466.3709-1.2477,1.0319h.4856c.0607-.4249.3237-.6137.7553-.6137.4856,0,.7082.3034.7082.7283v.1687l-.6542.0944c-.843.1214-1.5175.3304-1.5175,1.133.0068.6542.5058.9375,1.0993.9375M33.6508,29.6377h.4654v-1.9558c.1753-.4991.3911-.9307.897-.9307.0674,0,.1483.0067.2225.0202v-.5261c-.0472-.0067-.1011-.0135-.1753-.0135-.4856,0-.7621.317-.9442.6947v-.6272h-.4654v3.3384h0ZM35.7078,29.6377h.4654v-3.3452h-.4654v3.3452ZM38.0751,29.7052c.7486,0,1.16-.4384,1.16-1.0319,0-.5058-.3035-.7958-.7958-.9307l-.5126-.1416c-.3304-.0877-.5058-.2226-.5058-.5194,0-.1888.1349-.4316.5868-.4316.3844,0,.58.2023.6542.5193l.4923-.0067c-.1079-.6947-.5868-.9442-1.1533-.9442-.6812,0-1.0858.3507-1.0858.9037,0,.4991.3642.7891.7958.9037l.4991.1349c.3305.0877.5126.2765.5126.6003,0,.3102-.2631.4856-.6542.4856-.5598,0-.7217-.3238-.7689-.7419h-.4923c.0337.6542.4383,1.2005,1.2679,1.2005M35.9439,25.753c.1821,0,.3305-.1484.3305-.3305,0-.1888-.1484-.3372-.3305-.3372-.1889,0-.3372.1484-.3372.3372,0,.1821.1483.3305.3372.3305M40.0984,29.6377h.5328v-4.0061h1.5579v-.4788h-3.6621v.4788h1.5647v4.0061h.0067ZM43.0794,29.7052c.7958,0,1.3017-.4721,1.4365-1.1735h-.5462c-.1147.4518-.398.7216-.8903.7216-.6272,0-.9847-.4519-1.0319-1.1263h2.4819c.0068-.1281.0068-.1956.0068-.344,0-.7149-.4047-1.5646-1.4905-1.5646-1.0252,0-1.531.7553-1.531,1.74-.0067.9914.5396,1.7468,1.5647,1.7468M42.0543,27.7156c.0607-.6272.3844-1.0521.9914-1.0521.6205,0,.9172.4249.9712,1.0521h-1.9626ZM46.5123,29.7052c.8363,0,1.3623-.5193,1.4433-1.268h-.5396c-.0674.4991-.3912.8161-.9037.8161-.6745,0-.9982-.5193-.9982-1.2949,0-.7689.3237-1.2949.9982-1.2949.4856,0,.8093.2765.8767.7216h.5463c-.1146-.6879-.6272-1.1735-1.423-1.1735-1.0117,0-1.531.7554-1.531,1.7401-.0067.9981.5193,1.7535,1.531,1.7535M48.4546,29.6377h.4654v-2.2121c.2091-.4249.5328-.7554.924-.7554.3979,0,.6812.2496.6812.7891v2.1784h.4653v-2.3065c0-.634-.3642-1.1061-1.0723-1.1061-.4452,0-.7689.1888-1.0049.5396v-1.6119h-.4654v4.4849h.0067Z" fill="#222221"/>
        <path d="M96.3732,29.7322h-.607l.9037,1.4298v.9307h.5193v-.9375l.9038-1.4163h-.5868l-.5733.9442-.5597-.9509ZM88.28,30.9124v.0068c0,.6744.5125,1.2139,1.2072,1.2139.4519,0,.7216-.1618.9644-.4181l-.3304-.3305c-.1821.1686-.3507.2765-.6205.2765-.4047,0-.6812-.3372-.6812-.7418v-.0068c0-.4046.2833-.7351.6812-.7351.236,0,.4181.1012.6002.263l.3305-.3777c-.2158-.2158-.4856-.3642-.9307-.3642-.7149,0-1.2207.5463-1.2207,1.214M83.4038,31.3845l-.3035.3642c.2833.2496.6407.3777.9982.3777.5058,0,.8633-.263.8633-.7284v-.0067c0-.4114-.2698-.58-.7487-.7082-.4046-.1012-.5058-.1551-.5058-.3102v-.0068c0-.1146.1079-.209.3035-.209s.4047.0876.6137.236l.2698-.3912c-.236-.1888-.5328-.3035-.8768-.3035-.4788,0-.8228.2833-.8228.7082v.0067c0,.4654.3103.6003.7824.7217.3912.1011.4721.1686.4721.2967v.0068c0,.1349-.1282.2225-.3372.2225-.2698.0068-.4924-.1011-.7082-.2765M82.554,30.8045h-1.0386v.4923h1.0386v-.4923ZM79.3707,31.3845l-.3035.3642c.2832.2496.6407.3777.9982.3777.5058,0,.8632-.263.8632-.7284v-.0067c0-.4114-.2697-.58-.7486-.7082-.4046-.1012-.5058-.1551-.5058-.3102v-.0068c0-.1146.1012-.209.3035-.209s.4046.0876.6137.236l.2698-.3912c-.2361-.1888-.5328-.3035-.8768-.3035-.4788,0-.8228.2833-.8228.7082v.0067c0,.4654.3035.6003.7824.7217.3911.1011.4721.1686.4721.2967v.0068c0,.1349-.1282.2225-.3373.2225-.2765.0068-.499-.1011-.7081-.2765M70.8863,30.2043c.2563,0,.4182.1214.4182.3574v.0068c0,.2023-.1484.3574-.4114.3574h-.4114v-.7216h.4046ZM70.9268,29.7322h-.9645v2.3605h.5193v-.7082h.3912c.5261,0,.951-.2832.951-.8295v-.0068c.0067-.4788-.3305-.816-.897-.816M72.1273,28.7205h.5463v-3.0956h-.5463v1.767c0,.5193-.3507.8835-.8431.8835-.4856,0-.7756-.317-.7756-.8498v-1.8007h-.553v1.9086c0,.7621.4721,1.2477,1.2005,1.2477.4046,0,.7284-.1551.9712-.4721v.4114h0ZM73.5908,31.108h-.6272l.3102-.7621.317.7621ZM74.535,32.0927l-1.0117-2.374h-.4788l-1.0117,2.374h.5261l.2158-.5261h.9982l.2158.5261h.5463ZM75.8501,28.7205h.5531v-1.9086c0-.7621-.4721-1.2477-1.2005-1.2477-.4047,0-.7352.1551-.9712.4653v-.4046h-.553v3.0956h.553v-1.767c0-.5193.344-.8835.843-.8835.4856,0,.7756.317.7756.8498v1.8007h0ZM76.592,30.5482c0,.1956-.1484.3305-.3979.3305h-.5261v-.6744h.5194c.2495,0,.4046.1146.4046.3372v.0067h0ZM77.1855,32.0927l-.5733-.8431c.2968-.1079.5059-.3507.5059-.7284v-.0067c0-.4856-.3305-.7756-.8903-.7756h-1.0791v2.3605h.5193v-.7553h.4114l.5059.7553h.6002v-.0067ZM77.4013,28.7205h.5531v-3.0956h-.5531v3.0956ZM77.86,32.0927h.5193v-2.3605h-.5193v2.3605ZM80.4768,28.7407l1.3488-3.1158h-.5935l-.9779,2.3942-.9712-2.3942h-.607l1.3421,3.1158h.4587ZM84.5234,26.9535h-1.8075c.0742-.5396.4451-.9172.9105-.9172.58.0067.843.4653.897.9172M85.0764,27.3447c.0067-.054.0067-.1012.0067-.1417,0-.9779-.58-1.6388-1.4433-1.6388-.8497,0-1.4837.6946-1.4837,1.6119s.6677,1.6119,1.5444,1.6119c.5194,0,.9105-.1754,1.268-.5801l.0337-.0404-.3574-.317-.0338.0337c-.263.2765-.553.4047-.9037.4047-.5261,0-.9172-.3642-.9914-.9105h2.3605v-.0337ZM87.5583,26.1577h.0877v-.5801h-.0472c-.4789-.0202-.9038.2294-1.1735.6745v-.6205h-.5531v3.0957h.5531v-1.241c0-.8093.4451-1.3286,1.133-1.3286M86.9716,31.108h-.6273l.317-.7621.3103.7621ZM87.3762,32.0927h.5396l-1.0117-2.374h-.4788l-1.0117,2.374h.5261l.2158-.5261h.9982l.2225.5261ZM90.4921,27.8303v-.0135c0-.607-.6002-.7891-.9982-.9038l-.0135-.0067c-.3709-.1147-.7216-.2226-.7216-.4721,0-.2293.2091-.3844.5261-.3844.2697,0,.58.1011.8565.2832l.0472.027.2563-.4249-.0405-.027c-.3237-.2091-.7351-.3372-1.106-.3372-.6273,0-1.0724.3709-1.0724.9105v.0135c0,.6002.5935.7756,1.0251.897.4047.1146.7082.2158.7082.4856,0,.2495-.2293.4249-.5665.4249-.3305,0-.6812-.1282-1.0049-.371l-.0405-.0337-.2833.4047.0405.0337c.344.2765.8296.4519,1.2679.4519.6745-.0135,1.1196-.3912,1.1196-.9577M91.6454,29.7322h-.5193v2.3605h1.6928v-.4721h-1.1735v-1.8884ZM91.3756,28.7205h.553v-3.0956h-.553v3.0956ZM93.7091,26.1239h.951v-.499h-.951v-1.0184l-.5462.3035v.7149h-.5801v.499h.5801v1.7536c0,.58.3169.897.897.897.209,0,.3844-.0405.5597-.1349l.027-.0135v-.4991l-.0742.0337c-.1483.0675-.263.1012-.4114.1012-.3102,0-.4518-.1416-.4518-.4451v-1.6929h-.0001ZM94.8152,31.108h-.6272l.3102-.7621.317.7621ZM95.7594,32.0927l-1.0116-2.374h-.4789l-1.0116,2.374h.526l.2159-.5261h.9981l.2158.5261h.5463ZM96.6294,26.043c.5801,0,.8431.4654.897.9172h-1.8074c.0674-.5463.4383-.9172.9104-.9172M96.6362,25.5574c-.8498,0-1.4838.6947-1.4838,1.6119s.661,1.6119,1.5445,1.6119c.5193,0,.9105-.1821,1.2679-.58l.0338-.0405-.3575-.317-.0337.0338c-.2631.2765-.5531.4046-.9038.4046-.526,0-.9172-.3642-.9914-.9105h2.3605l.0068-.0472c.0067-.0539.0067-.1011.0067-.1483,0-.9577-.58-1.6187-1.45-1.6187M97.115,24.2423c0-.2833-.2293-.5126-.5125-.5126s-.5126.2293-.5126.5126.2293.5125.5126.5125.5125-.2293.5125-.5125M99.2125,22.6911c0-.4586-.3709-.8296-.8295-.8296s-.8296.371-.8296.8296.371.8295.8296.8295c.4586-.0067.8295-.3777.8295-.8295" fill="#682145"/>
        <polygon points="56.9862 21.9424 51.5166 34.8309 53.4724 34.8309 55.0708 31.0608 60.8507 31.0608 60.0212 29.1049 55.9004 29.1049 57.9642 24.249 56.9862 21.9424" fill="#339b75"/>
        <line x1="65.3694" y1="21.9424" x2="65.3694" y2="34.8309" fill="none" stroke="#222221" stroke-width=".0337"/>
      </g>
    </g>
  </g>
</svg>